<svg xmlns="http://www.w3.org/2000/svg" viewBox="0 0 336 280" role="img" aria-labelledby="title">
  <title id="title">Talaria mark</title>
  <defs>
    <clipPath id="talaria-glyph-band">
      <rect x="0" y="150.000000" width="240" height="30.000000"/>
    </clipPath>
  </defs>
  <g transform="translate(48 48)">
    <path d="M 120 70 C 90 30, 50 22, 22 50 C 38 60, 60 65, 78 70 C 50 70, 18 82, 12 110 C 38 100, 64 95, 80 92 C 50 102, 24 120, 22 150 C 50 145, 70 138, 84 130 Q 60 164, 22 170 L 22 184 L 120 184 Z" fill="#ffc72c"/>
    <path d="M 120 70 C 150 30, 190 22, 218 50 C 202 60, 180 65, 162 70 C 190 70, 222 82, 228 110 C 202 100, 176 95, 160 92 C 190 102, 216 120, 218 150 C 190 145, 170 138, 156 130 Q 180 164, 218 170 L 218 184 L 120 184 Z" fill="#ffc72c"/>
  </g>
  <g transform="translate(48 48)" clip-path="url(#talaria-glyph-band)">
    <path d="M 120 70 C 90 30, 50 22, 22 50 C 38 60, 60 65, 78 70 C 50 70, 18 82, 12 110 C 38 100, 64 95, 80 92 C 50 102, 24 120, 22 150 C 50 145, 70 138, 84 130 Q 60 164, 22 170 L 22 184 L 120 184 Z" fill="#f9a23a"/>
    <path d="M 120 70 C 150 30, 190 22, 218 50 C 202 60, 180 65, 162 70 C 190 70, 222 82, 228 110 C 202 100, 176 95, 160 92 C 190 102, 216 120, 218 150 C 190 145, 170 138, 156 130 Q 180 164, 218 170 L 218 184 L 120 184 Z" fill="#f9a23a"/>
  </g>

</svg>
