<svg xmlns="http://www.w3.org/2000/svg" viewBox="0 0 1044 366" role="img" aria-labelledby="title">
  <title id="title">Talaria — winged sandals for the Hermes Agent</title>
  <rect x="136" y="40" width="22" height="22" fill="#000"/>
  <rect x="158" y="40" width="22" height="22" fill="#000"/>
  <rect x="114" y="62" width="22" height="22" fill="#000"/>
  <rect x="136" y="62" width="22" height="22" fill="#000"/>
  <rect x="158" y="62" width="22" height="22" fill="#000"/>
  <rect x="180" y="62" width="22" height="22" fill="#000"/>
  <rect x="92" y="84" width="22" height="22" fill="#000"/>
  <rect x="114" y="84" width="22" height="22" fill="#000"/>
  <rect x="136" y="84" width="22" height="22" fill="#000"/>
  <rect x="158" y="84" width="22" height="22" fill="#000"/>
  <rect x="180" y="84" width="22" height="22" fill="#000"/>
  <rect x="202" y="84" width="22" height="22" fill="#000"/>
  <rect x="70" y="106" width="22" height="22" fill="#000"/>
  <rect x="92" y="106" width="22" height="22" fill="#000"/>
  <rect x="114" y="106" width="22" height="22" fill="#000"/>
  <rect x="136" y="106" width="22" height="22" fill="#000"/>
  <rect x="158" y="106" width="22" height="22" fill="#000"/>
  <rect x="180" y="106" width="22" height="22" fill="#000"/>
  <rect x="202" y="106" width="22" height="22" fill="#000"/>
  <rect x="224" y="106" width="22" height="22" fill="#000"/>
  <rect x="48" y="128" width="22" height="22" fill="#000"/>
  <rect x="70" y="128" width="22" height="22" fill="#000"/>
  <rect x="92" y="128" width="22" height="22" fill="#000"/>
  <rect x="114" y="128" width="22" height="22" fill="#000"/>
  <rect x="136" y="128" width="22" height="22" fill="#000"/>
  <rect x="158" y="128" width="22" height="22" fill="#000"/>
  <rect x="180" y="128" width="22" height="22" fill="#000"/>
  <rect x="202" y="128" width="22" height="22" fill="#000"/>
  <rect x="224" y="128" width="22" height="22" fill="#000"/>
  <rect x="246" y="128" width="22" height="22" fill="#000"/>
  <rect x="70" y="150" width="22" height="22" fill="#000"/>
  <rect x="92" y="150" width="22" height="22" fill="#000"/>
  <rect x="114" y="150" width="22" height="22" fill="#000"/>
  <rect x="136" y="150" width="22" height="22" fill="#000"/>
  <rect x="158" y="150" width="22" height="22" fill="#000"/>
  <rect x="180" y="150" width="22" height="22" fill="#000"/>
  <rect x="202" y="150" width="22" height="22" fill="#000"/>
  <rect x="224" y="150" width="22" height="22" fill="#000"/>
  <rect x="92" y="172" width="22" height="22" fill="#000"/>
  <rect x="114" y="172" width="22" height="22" fill="#000"/>
  <rect x="136" y="172" width="22" height="22" fill="#000"/>
  <rect x="158" y="172" width="22" height="22" fill="#000"/>
  <rect x="180" y="172" width="22" height="22" fill="#000"/>
  <rect x="202" y="172" width="22" height="22" fill="#000"/>
  <rect x="114" y="194" width="22" height="22" fill="#000"/>
  <rect x="136" y="194" width="22" height="22" fill="#000"/>
  <rect x="158" y="194" width="22" height="22" fill="#000"/>
  <rect x="180" y="194" width="22" height="22" fill="#000"/>
  <rect x="48" y="282" width="22" height="22" fill="#000"/>
  <rect x="70" y="282" width="22" height="22" fill="#000"/>
  <rect x="92" y="282" width="22" height="22" fill="#000"/>
  <rect x="114" y="282" width="22" height="22" fill="#000"/>
  <rect x="136" y="282" width="22" height="22" fill="#000"/>
  <rect x="158" y="282" width="22" height="22" fill="#000"/>
  <rect x="180" y="282" width="22" height="22" fill="#000"/>
  <rect x="202" y="282" width="22" height="22" fill="#000"/>
  <rect x="224" y="282" width="22" height="22" fill="#000"/>
  <rect x="246" y="282" width="22" height="22" fill="#000"/>
  <rect x="92" y="304" width="22" height="22" fill="#000"/>
  <rect x="114" y="304" width="22" height="22" fill="#000"/>
  <rect x="136" y="304" width="22" height="22" fill="#000"/>
  <rect x="158" y="304" width="22" height="22" fill="#000"/>
  <rect x="180" y="304" width="22" height="22" fill="#000"/>
  <rect x="202" y="304" width="22" height="22" fill="#000"/>
  <text x="324" y="224.0" font-family="Georgia, 'Times New Roman', serif" font-size="116" font-weight="700" letter-spacing="6" fill="#000">TALARIA</text>
</svg>
