<svg xmlns="http://www.w3.org/2000/svg" viewBox="0 0 276 342" role="img" aria-labelledby="title">
  <title id="title">Talaria mark</title>
  <rect x="116" y="28" width="22" height="22" fill="#000"/>
  <rect x="138" y="28" width="22" height="22" fill="#000"/>
  <rect x="94" y="50" width="22" height="22" fill="#000"/>
  <rect x="116" y="50" width="22" height="22" fill="#000"/>
  <rect x="138" y="50" width="22" height="22" fill="#000"/>
  <rect x="160" y="50" width="22" height="22" fill="#000"/>
  <rect x="72" y="72" width="22" height="22" fill="#000"/>
  <rect x="94" y="72" width="22" height="22" fill="#000"/>
  <rect x="116" y="72" width="22" height="22" fill="#000"/>
  <rect x="138" y="72" width="22" height="22" fill="#000"/>
  <rect x="160" y="72" width="22" height="22" fill="#000"/>
  <rect x="182" y="72" width="22" height="22" fill="#000"/>
  <rect x="50" y="94" width="22" height="22" fill="#000"/>
  <rect x="72" y="94" width="22" height="22" fill="#000"/>
  <rect x="94" y="94" width="22" height="22" fill="#000"/>
  <rect x="116" y="94" width="22" height="22" fill="#000"/>
  <rect x="138" y="94" width="22" height="22" fill="#000"/>
  <rect x="160" y="94" width="22" height="22" fill="#000"/>
  <rect x="182" y="94" width="22" height="22" fill="#000"/>
  <rect x="204" y="94" width="22" height="22" fill="#000"/>
  <rect x="28" y="116" width="22" height="22" fill="#000"/>
  <rect x="50" y="116" width="22" height="22" fill="#000"/>
  <rect x="72" y="116" width="22" height="22" fill="#000"/>
  <rect x="94" y="116" width="22" height="22" fill="#000"/>
  <rect x="116" y="116" width="22" height="22" fill="#000"/>
  <rect x="138" y="116" width="22" height="22" fill="#000"/>
  <rect x="160" y="116" width="22" height="22" fill="#000"/>
  <rect x="182" y="116" width="22" height="22" fill="#000"/>
  <rect x="204" y="116" width="22" height="22" fill="#000"/>
  <rect x="226" y="116" width="22" height="22" fill="#000"/>
  <rect x="50" y="138" width="22" height="22" fill="#000"/>
  <rect x="72" y="138" width="22" height="22" fill="#000"/>
  <rect x="94" y="138" width="22" height="22" fill="#000"/>
  <rect x="116" y="138" width="22" height="22" fill="#000"/>
  <rect x="138" y="138" width="22" height="22" fill="#000"/>
  <rect x="160" y="138" width="22" height="22" fill="#000"/>
  <rect x="182" y="138" width="22" height="22" fill="#000"/>
  <rect x="204" y="138" width="22" height="22" fill="#000"/>
  <rect x="72" y="160" width="22" height="22" fill="#000"/>
  <rect x="94" y="160" width="22" height="22" fill="#000"/>
  <rect x="116" y="160" width="22" height="22" fill="#000"/>
  <rect x="138" y="160" width="22" height="22" fill="#000"/>
  <rect x="160" y="160" width="22" height="22" fill="#000"/>
  <rect x="182" y="160" width="22" height="22" fill="#000"/>
  <rect x="94" y="182" width="22" height="22" fill="#000"/>
  <rect x="116" y="182" width="22" height="22" fill="#000"/>
  <rect x="138" y="182" width="22" height="22" fill="#000"/>
  <rect x="160" y="182" width="22" height="22" fill="#000"/>
  <rect x="28" y="270" width="22" height="22" fill="#000"/>
  <rect x="50" y="270" width="22" height="22" fill="#000"/>
  <rect x="72" y="270" width="22" height="22" fill="#000"/>
  <rect x="94" y="270" width="22" height="22" fill="#000"/>
  <rect x="116" y="270" width="22" height="22" fill="#000"/>
  <rect x="138" y="270" width="22" height="22" fill="#000"/>
  <rect x="160" y="270" width="22" height="22" fill="#000"/>
  <rect x="182" y="270" width="22" height="22" fill="#000"/>
  <rect x="204" y="270" width="22" height="22" fill="#000"/>
  <rect x="226" y="270" width="22" height="22" fill="#000"/>
  <rect x="72" y="292" width="22" height="22" fill="#000"/>
  <rect x="94" y="292" width="22" height="22" fill="#000"/>
  <rect x="116" y="292" width="22" height="22" fill="#000"/>
  <rect x="138" y="292" width="22" height="22" fill="#000"/>
  <rect x="160" y="292" width="22" height="22" fill="#000"/>
  <rect x="182" y="292" width="22" height="22" fill="#000"/>
</svg>
